<svg width="27" height="27" viewBox="0 0 27 27" fill="none" xmlns="http://www.w3.org/2000/svg">
<circle cx="13.5" cy="13.5" r="13" fill="white" stroke="#6200EE"/>
<path d="M18.5 5C17.837 5 17.2011 5.28446 16.7322 5.79081C16.2634 6.29716 16 6.98392 16 7.7C16.0005 7.86934 16.0158 8.03824 16.0456 8.20449L10.1162 11.9398C9.66459 11.5267 9.09188 11.2999 8.5 11.3C7.83696 11.3 7.20107 11.5845 6.73223 12.0908C6.26339 12.5972 6 13.2839 6 14C6 14.7161 6.26339 15.4028 6.73223 15.9092C7.20107 16.4155 7.83696 16.7 8.5 16.7C9.09097 16.6987 9.66242 16.4714 10.113 16.0584L16.0456 19.7955C16.0158 19.9618 16.0005 20.1307 16 20.3C16 21.0161 16.2634 21.7028 16.7322 22.2092C17.2011 22.7155 17.837 23 18.5 23C19.163 23 19.7989 22.7155 20.2678 22.2092C20.7366 21.7028 21 21.0161 21 20.3C21 19.5839 20.7366 18.8972 20.2678 18.3908C19.7989 17.8845 19.163 17.6 18.5 17.6C17.9085 17.6008 17.3364 17.8282 16.8854 18.2416L10.9544 14.5045C10.9842 14.3382 10.9995 14.1693 11 14C10.9995 13.8307 10.9842 13.6618 10.9544 13.4955L16.8838 9.76016C17.3354 10.1733 17.9081 10.4001 18.5 10.4C19.163 10.4 19.7989 10.1155 20.2678 9.60919C20.7366 9.10284 21 8.41608 21 7.7C21 6.98392 20.7366 6.29716 20.2678 5.79081C19.7989 5.28446 19.163 5 18.5 5Z" fill="#707070"/>
</svg>
